<?xml version="1.0" standalone="no"?>
<!DOCTYPE svg PUBLIC "-//W3C//DTD SVG 20010904//EN"
 "http://www.w3.org/TR/2001/REC-SVG-20010904/DTD/svg10.dtd">
<svg version="1.0" xmlns="http://www.w3.org/2000/svg"
 width="849.000000pt" height="849.000000pt" viewBox="0 0 849.000000 849.000000"
 preserveAspectRatio="xMidYMid meet">
<metadata>
Created by potrace 1.14, written by Peter Selinger 2001-2017
</metadata>
<g transform="translate(0.000000,849.000000) scale(0.100000,-0.100000)"
fill="#000000" stroke="none">
<path d="M3870 8474 c-141 -14 -208 -21 -250 -29 -14 -2 -43 -7 -65 -10 -157
-22 -457 -96 -655 -162 -779 -260 -1481 -755 -1992 -1403 -327 -416 -579 -901
-732 -1410 -31 -105 -83 -313 -92 -366 -3 -21 -10 -58 -15 -81 -12 -57 -36
-223 -45 -308 -3 -38 -8 -81 -11 -95 -2 -14 -6 -158 -7 -320 -3 -236 0 -330
15 -468 56 -521 183 -972 404 -1427 217 -446 472 -803 829 -1161 602 -601
1384 -1012 2216 -1164 36 -7 73 -14 82 -15 27 -6 262 -34 363 -44 141 -14 639
-6 795 13 236 28 393 58 615 116 716 186 1370 559 1902 1085 465 459 807 1000
1029 1625 54 154 126 415 150 550 3 14 11 61 19 105 22 118 43 276 52 390 15
189 8 693 -11 815 -3 14 -9 63 -15 110 -43 330 -129 660 -258 990 -42 107
-192 423 -245 515 -64 111 -88 149 -161 260 -171 257 -334 455 -551 670 -638
633 -1449 1046 -2326 1184 -287 45 -770 62 -1040 35z"/>
</g>
</svg>
