<svg xmlns="http://www.w3.org/2000/svg" xmlns:xlink="http://www.w3.org/1999/xlink" id="visual" version="1.1" viewBox="0 0 960 104.44"><path d="M0 95L17.8 97.5C35.7 100 71.3 105 106.8 102.7C142.3 100.3 177.7 90.7 213.2 90.3C248.7 90 284.3 99 320 102.5C355.7 106 391.3 104 426.8 102.5C462.3 101 497.7 100 533.2 95.3C568.7 90.7 604.3 82.3 640 80C675.7 77.7 711.3 81.3 746.8 81.7C782.3 82 817.7 79 853.2 81.8C888.7 84.7 924.3 93.3 942.2 97.7L960 102L960 0L942.2 0C924.3 0 888.7 0 853.2 0C817.7 0 782.3 0 746.8 0C711.3 0 675.7 0 640 0C604.3 0 568.7 0 533.2 0C497.7 0 462.3 0 426.8 0C391.3 0 355.7 0 320 0C284.3 0 248.7 0 213.2 0C177.7 0 142.3 0 106.8 0C71.3 0 35.7 0 17.8 0L0 0Z" fill="#fed8a3"/><path d="M0 73L17.8 71C35.7 69 71.3 65 106.8 67.3C142.3 69.7 177.7 78.3 213.2 82.3C248.7 86.3 284.3 85.7 320 82.5C355.7 79.3 391.3 73.7 426.8 71.2C462.3 68.7 497.7 69.3 533.2 70.5C568.7 71.7 604.3 73.3 640 76C675.7 78.7 711.3 82.3 746.8 82.2C782.3 82 817.7 78 853.2 74.8C888.7 71.7 924.3 69.3 942.2 68.2L960 67L960 0L942.2 0C924.3 0 888.7 0 853.2 0C817.7 0 782.3 0 746.8 0C711.3 0 675.7 0 640 0C604.3 0 568.7 0 533.2 0C497.7 0 462.3 0 426.8 0C391.3 0 355.7 0 320 0C284.3 0 248.7 0 213.2 0C177.7 0 142.3 0 106.8 0C71.3 0 35.7 0 17.8 0L0 0Z" fill="#ffe1b6"/><path d="M0 37L17.8 38.7C35.7 40.3 71.3 43.7 106.8 44.7C142.3 45.7 177.7 44.3 213.2 42.2C248.7 40 284.3 37 320 41.2C355.7 45.3 391.3 56.7 426.8 56.7C462.3 56.7 497.7 45.3 533.2 43.7C568.7 42 604.3 50 640 55.3C675.7 60.7 711.3 63.3 746.8 62C782.3 60.7 817.7 55.3 853.2 52C888.7 48.7 924.3 47.3 942.2 46.7L960 46L960 0L942.2 0C924.3 0 888.7 0 853.2 0C817.7 0 782.3 0 746.8 0C711.3 0 675.7 0 640 0C604.3 0 568.7 0 533.2 0C497.7 0 462.3 0 426.8 0C391.3 0 355.7 0 320 0C284.3 0 248.7 0 213.2 0C177.7 0 142.3 0 106.8 0C71.3 0 35.7 0 17.8 0L0 0Z" fill="#ffe9ca"/><path d="M0 25L17.8 23.2C35.7 21.3 71.3 17.7 106.8 16.5C142.3 15.3 177.7 16.7 213.2 17.3C248.7 18 284.3 18 320 18.2C355.7 18.3 391.3 18.7 426.8 19.5C462.3 20.3 497.7 21.7 533.2 25.3C568.7 29 604.3 35 640 34.2C675.7 33.3 711.3 25.7 746.8 23.2C782.3 20.7 817.7 23.3 853.2 23.8C888.7 24.3 924.3 22.7 942.2 21.8L960 21L960 0L942.2 0C924.3 0 888.7 0 853.2 0C817.7 0 782.3 0 746.8 0C711.3 0 675.7 0 640 0C604.3 0 568.7 0 533.2 0C497.7 0 462.3 0 426.8 0C391.3 0 355.7 0 320 0C284.3 0 248.7 0 213.2 0C177.7 0 142.3 0 106.8 0C71.3 0 35.7 0 17.8 0L0 0Z" fill="#fff1dd"/></svg>